<svg width="48" height="48" viewBox="0 0 48 48" fill="none" xmlns="http://www.w3.org/2000/svg">
<path d="M39.0004 13.64C37.6604 10.89 33.8004 8.64001 29.3104 9.95001C27.1648 10.5697 25.2929 11.8988 24.0004 13.72C22.7078 11.8988 20.8359 10.5697 18.6904 9.95001C14.1904 8.66001 10.3404 10.89 9.00036 13.64C7.12036 17.49 7.90036 21.82 11.3204 26.51C14.0004 30.18 17.8304 33.9 23.3904 38.22C23.5661 38.3571 23.7825 38.4315 24.0054 38.4315C24.2282 38.4315 24.4446 38.3571 24.6204 38.22C30.1704 33.91 34.0104 30.22 36.6904 26.51C40.1004 21.82 40.8804 17.49 39.0004 13.64Z" fill="#FC6A57"/>
</svg>
